<?xml version="1.0" standalone="no"?>
<!DOCTYPE svg PUBLIC "-//W3C//DTD SVG 20010904//EN"
 "http://www.w3.org/TR/2001/REC-SVG-20010904/DTD/svg10.dtd">
<svg version="1.0" xmlns="http://www.w3.org/2000/svg"
 width="1280.000000pt" height="1086.000000pt" viewBox="0 0 1280.000000 1086.000000"
 preserveAspectRatio="xMidYMid meet">
<metadata>
Created by potrace 1.15, written by Peter Selinger 2001-2017
</metadata>
<g transform="translate(0.000000,1086.000000) scale(0.100000,-0.100000)"
fill="#F5F5F5" stroke="none">
<path d="M4452 10573 c-12 -10 -40 -51 -62 -91 -39 -70 -45 -92 -126 -490
l-86 -417 -116 -118 -117 -118 -315 -159 c-482 -244 -673 -367 -878 -564 -141
-137 -222 -249 -272 -377 -29 -73 -34 -103 -42 -229 -17 -255 6 -700 47 -926
26 -142 82 -281 164 -404 57 -87 146 -175 266 -264 114 -86 225 -195 225 -223
0 -25 -175 -193 -292 -279 -146 -108 -284 -193 -466 -287 -417 -216 -650 -279
-852 -232 -204 48 -438 237 -535 431 -55 111 -71 203 -57 328 12 108 48 239
89 321 100 197 285 368 465 428 51 17 89 21 198 21 l135 1 48 -40 47 -39 0
-101 c0 -125 -13 -206 -50 -320 -37 -113 -54 -223 -46 -297 9 -85 41 -168 77
-202 30 -27 36 -28 94 -23 173 13 314 156 388 392 38 123 51 225 51 405 0 161
0 167 -34 264 -89 262 -307 465 -576 537 -112 31 -314 31 -436 1 -174 -43
-301 -104 -455 -219 -344 -258 -615 -755 -674 -1237 -15 -123 -7 -376 16 -506
34 -193 112 -387 212 -529 65 -92 196 -218 296 -285 264 -176 565 -246 997
-233 347 11 501 37 643 108 33 17 297 179 585 360 470 296 572 353 572 322 0
-4 -11 -18 -24 -32 -54 -59 -230 -300 -256 -352 -49 -96 -64 -170 -64 -319 0
-342 99 -557 475 -1030 200 -252 292 -381 327 -456 103 -224 74 -431 -83 -590
-61 -62 -125 -94 -187 -94 l-28 0 0 83 c0 102 -17 328 -31 422 -62 406 -262
682 -545 752 -93 23 -315 22 -444 -2 -211 -39 -434 -129 -611 -246 -133 -89
-308 -265 -394 -397 -120 -184 -171 -339 -182 -547 -14 -282 67 -485 276 -694
262 -261 619 -413 1061 -452 131 -11 211 -7 295 16 28 7 75 16 105 19 l55 6
23 -137 c31 -182 42 -207 109 -250 68 -43 85 -78 72 -146 -9 -53 -31 -88 -94
-157 -70 -76 -121 -186 -101 -218 10 -17 137 7 219 42 112 47 149 56 244 56
l82 0 28 -36 c53 -69 360 -196 593 -245 152 -33 453 -33 588 -2 310 73 623
274 847 543 141 169 232 328 292 509 38 116 52 243 53 502 1 300 -35 477 -240
1179 -133 456 -170 652 -170 893 1 693 248 1122 630 1095 129 -10 207 -64 261
-184 68 -149 79 -249 95 -824 5 -194 10 -256 31 -355 121 -584 424 -1096 820
-1387 83 -61 220 -130 323 -163 l85 -28 360 -1 c297 -1 393 3 545 19 146 16
253 20 510 20 l325 -1 90 -27 c147 -46 235 -109 282 -205 26 -52 28 -67 28
-167 0 -100 -3 -116 -29 -172 -32 -70 -116 -157 -184 -192 -98 -50 -220 -63
-327 -36 -141 37 -162 79 -130 248 8 43 15 97 15 120 -1 122 -109 211 -252
209 -141 -2 -211 -47 -244 -157 -28 -90 -26 -277 3 -370 76 -240 301 -436 589
-512 84 -21 122 -26 244 -26 172 -1 239 13 376 79 202 96 369 311 451 579 26
86 27 99 27 305 0 190 -3 224 -22 295 -108 394 -445 605 -1087 680 -558 65
-885 144 -1156 281 -223 112 -391 290 -525 556 -124 246 -174 498 -160 803 6
158 16 201 52 245 37 44 63 39 136 -25 265 -233 447 -372 648 -493 245 -147
626 -341 983 -498 94 -41 180 -85 191 -97 15 -18 17 -34 14 -87 -5 -69 -26
-119 -83 -198 -63 -90 -81 -195 -50 -300 18 -61 45 -82 110 -90 35 -3 56 1 98
22 68 33 123 102 212 264 37 67 78 131 92 142 25 19 41 20 579 20 445 0 566 3
621 15 318 67 607 300 753 607 67 141 91 242 97 403 10 283 -57 533 -201 749
-167 250 -408 398 -711 435 -288 35 -533 -12 -723 -139 -194 -130 -338 -333
-450 -635 -40 -106 -119 -354 -142 -443 -18 -69 -60 -69 -132 -2 -24 23 -128
106 -233 187 -243 187 -394 313 -514 429 l-96 92 40 7 c110 19 389 93 545 145
390 130 730 306 975 503 135 109 265 252 313 345 83 160 82 143 82 921 0 655
6 814 31 926 18 80 72 186 123 242 65 72 121 98 216 97 42 0 85 -6 98 -13 28
-15 268 -233 336 -304 139 -147 223 -309 255 -490 18 -100 24 -259 12 -303
-17 -62 -40 -85 -174 -174 -67 -45 -137 -96 -154 -113 -49 -46 -66 -101 -61
-194 6 -133 42 -173 160 -181 163 -10 281 37 403 161 124 127 203 299 241 526
66 406 -116 959 -424 1283 -239 250 -501 361 -821 345 -283 -13 -469 -90 -634
-260 -211 -217 -342 -513 -406 -918 -28 -170 -40 -354 -47 -679 -3 -151 -10
-298 -15 -327 -30 -156 -168 -302 -359 -379 -140 -57 -310 -86 -505 -87 -106
-1 -145 3 -209 21 -168 48 -292 127 -336 212 -25 49 -44 155 -31 177 20 38
105 107 341 278 285 206 379 284 496 409 203 215 306 440 323 705 16 259 -27
434 -145 591 -27 35 -138 155 -246 266 -108 110 -202 213 -208 228 -27 72 0
213 59 305 54 84 197 211 359 320 160 106 184 133 184 198 0 19 -6 48 -12 64
-21 51 -58 62 -215 67 -208 6 -344 -24 -471 -107 -162 -104 -281 -291 -329
-516 -24 -111 -25 -328 -2 -415 21 -81 85 -215 171 -359 134 -226 166 -311
166 -446 0 -172 -57 -293 -210 -445 -124 -124 -227 -195 -410 -284 -260 -125
-519 -193 -772 -203 -81 -3 -154 -3 -162 0 -12 5 6 28 73 94 80 78 92 95 106
147 25 85 18 265 -13 322 -19 37 -125 149 -206 216 l-29 24 28 50 c16 27 39
62 52 77 13 16 23 35 23 42 0 8 6 12 14 9 23 -9 48 25 41 55 -9 37 -22 48 -43
35 -10 -6 -18 -27 -20 -48 l-3 -36 -175 0 c-96 0 -174 2 -174 5 0 3 38 53 85
112 107 135 280 378 328 461 211 364 188 784 -64 1122 -209 281 -598 474
-1034 511 -531 45 -1093 -254 -1321 -703 -135 -266 -123 -601 33 -912 50 -100
177 -314 252 -426 30 -44 51 -86 51 -102 l0 -28 -192 -2 c-230 -4 -227 -2
-148 -116 27 -41 50 -77 50 -81 0 -5 -33 -36 -73 -69 -86 -70 -145 -144 -184
-227 -26 -55 -28 -70 -28 -175 0 -104 3 -120 26 -170 27 -56 82 -118 178 -202
30 -26 50 -51 46 -57 -12 -20 -97 -57 -230 -101 l-130 -44 -320 0 c-336 -1
-475 11 -660 54 -377 88 -611 295 -696 615 -26 101 -37 341 -20 428 26 122
114 253 253 374 64 56 276 200 521 352 332 207 540 428 618 654 55 162 61 342
20 637 -70 505 -59 451 -100 489 -45 42 -91 71 -112 71 -9 0 -26 -8 -37 -17z
m-792 -5208 c10 -12 10 -21 2 -41 -14 -30 -37 -40 -57 -24 -15 13 -21 61 -8
73 12 12 50 7 63 -8z m7647 -440 c175 -55 302 -191 339 -364 44 -209 -7 -367
-164 -512 -74 -68 -220 -145 -332 -176 -174 -48 -565 0 -636 78 -55 61 83 501
229 727 90 138 216 249 311 273 48 12 174 -1 253 -26z m-6577 8 c0 -10 7 -79
15 -153 55 -492 186 -929 481 -1596 413 -934 452 -1098 373 -1572 -83 -504
-281 -790 -614 -887 -72 -22 -119 -28 -240 -32 -129 -5 -151 -9 -165 -25 -14
-17 -19 -17 -145 16 -304 80 -366 123 -410 289 -12 46 -36 127 -53 182 -29 94
-113 459 -128 553 -5 33 -3 47 12 63 9 11 118 72 241 136 270 140 382 212 476
307 168 169 223 340 214 656 -5 197 -23 276 -96 425 -61 127 -120 222 -257
416 -259 364 -306 469 -308 674 -1 89 2 106 26 155 58 118 223 251 439 355
126 59 139 63 139 38z m-1747 -1907 c89 -37 173 -202 247 -490 22 -83 47 -192
56 -243 16 -88 16 -93 -2 -129 -45 -89 -126 -108 -464 -108 -266 -1 -329 8
-417 60 -55 32 -117 103 -131 152 -17 55 -15 197 3 266 26 99 82 194 165 277
123 124 258 197 401 217 93 14 106 13 142 -2z"/>
</g>
</svg>
